<?xml version="1.0" encoding="UTF-8" standalone="no"?>
<svg
   xmlns:osb="http://www.openswatchbook.org/uri/2009/osb"
   xmlns:dc="http://purl.org/dc/elements/1.1/"
   xmlns:cc="http://creativecommons.org/ns#"
   xmlns:rdf="http://www.w3.org/1999/02/22-rdf-syntax-ns#"
   xmlns:svg="http://www.w3.org/2000/svg"
   xmlns="http://www.w3.org/2000/svg"
   id="svg3409"
   version="1.1"
   width="259.52863"
   height="93.044197"
   viewBox="0 0 259.52863 93.044197">
  <metadata
     id="metadata3415">
    <rdf:RDF>
      <cc:Work
         rdf:about="">
        <dc:format>image/svg+xml</dc:format>
        <dc:type
           rdf:resource="http://purl.org/dc/dcmitype/StillImage" />
        <dc:title></dc:title>
      </cc:Work>
    </rdf:RDF>
  </metadata>
  <defs
     id="defs3413">
    <linearGradient
       id="linearGradient4233"
       osb:paint="solid">
      <stop
         style="stop-color:#000000;stop-opacity:1;"
         offset="0"
         id="stop4235" />
    </linearGradient>
  </defs>
  <g
     id="g4314"
     transform="matrix(1.0207848,0,0,1.0417788,0.92232326,1.0879961)">
    <path
       id="path4231"
       d="m 0.88388441,43.59375 0,-42.70986671 125.20985559,0 125.20988,0 0,42.70986671 0,42.709867 -125.20988,0 -125.20985559,0 0,-42.709867 z M 39.051946,74.363224 c 0,-7.654097 -0.137917,-8.266425 -1.861858,-8.266425 -1.72394,0 -1.861856,0.612328 -1.861856,8.266425 0,7.654098 0.137916,8.266427 1.861856,8.266427 1.723941,0 1.861858,-0.612329 1.861858,-8.266427 z m -6.516499,4.60985 c 0,-0.495606 -1.346663,-3.595517 -2.992595,-6.888688 -2.015581,-4.032801 -3.535204,-5.987587 -4.654637,-5.987587 -2.272494,0 -2.121779,0.882377 1.330543,7.789789 2.015591,4.032801 3.535204,5.987587 4.654642,5.987587 0.914126,0 1.662047,-0.405497 1.662047,-0.901101 z m 6.516499,-22.061192 c 0,-7.6541 -0.137917,-8.266427 -1.861858,-8.266427 -1.72394,0 -1.861856,0.612327 -1.861856,8.266427 0,7.654097 0.137916,8.266425 1.861856,8.266425 1.723941,0 1.861858,-0.612328 1.861858,-8.266425 z m -9.397025,-0.562369 c 3.374985,-7.115837 3.459459,-7.704058 1.10642,-7.704058 -1.275576,0 -2.583573,1.706659 -4.654643,6.073319 -3.374991,7.115836 -3.459469,7.704059 -1.106422,7.704059 1.275569,0 2.583565,-1.70666 4.654645,-6.07332 z M 24.157093,46.349225 c 0,-0.757756 0.588891,-1.377738 1.308647,-1.377738 1.174572,0 7.069707,-10.861752 7.069707,-13.025888 0,-0.483588 -0.864537,-0.747175 -1.921208,-0.585746 -1.382381,0.211188 -2.753106,2.155786 -4.887371,6.933564 l -2.966167,6.640059 -4.189178,-0.01249 -4.189178,-0.01248 -3.169984,-6.857187 C 8.9368309,33.12896 7.5577918,31.194112 6.3249875,31.194112 c -0.9445651,0 -1.7173896,0.405496 -1.7173896,0.9011 0,1.998255 6.0672381,12.876275 7.1817701,12.876275 0.658121,0 1.196584,0.619982 1.196584,1.377738 0,1.071574 1.241238,1.377737 5.585571,1.377737 4.344332,0 5.58557,-0.306163 5.58557,-1.377737 z m -7.680159,-0.188964 c 1.152024,-0.218926 3.037155,-0.218926 4.189178,0 1.152024,0.218925 0.209458,0.398046 -2.094589,0.398046 -2.304049,0 -3.246612,-0.179121 -2.094589,-0.398046 z m 22.575012,-6.699724 c 0,-7.654097 -0.137917,-8.266425 -1.861858,-8.266425 -1.72394,0 -1.861856,0.612328 -1.861856,8.266425 0,7.654098 0.137916,8.266425 1.861856,8.266425 1.723941,0 1.861858,-0.612327 1.861858,-8.266425 z m 46.546419,0 c 0,-7.654097 -0.137916,-8.266425 -1.861856,-8.266425 -1.723941,0 -1.861857,0.612328 -1.861857,8.266425 0,7.654098 0.137916,8.266425 1.861857,8.266425 1.72394,0 1.861856,-0.612327 1.861856,-8.266425 z m 13.032997,6.888688 c 0,-0.757756 0.60489,-1.377738 1.344192,-1.377738 0.743756,0 2.463876,-2.461651 3.850846,-5.51095 1.37865,-3.031023 2.79133,-5.510951 3.13927,-5.510951 0.34796,0 1.83398,2.479928 3.3023,5.510951 1.46831,3.031023 3.221,5.51095 3.89488,5.51095 0.67388,0 1.22522,0.619982 1.22522,1.377738 0,1.071574 1.24124,1.377737 5.58557,1.377737 4.34433,0 5.58557,-0.306163 5.58557,-1.377737 0,-0.757756 0.58888,-1.377738 1.30864,-1.377738 1.17457,0 7.06972,-10.861752 7.06972,-13.025888 0,-0.483588 -0.86456,-0.747175 -1.92121,-0.585746 -1.38238,0.211188 -2.7531,2.155786 -4.88737,6.933564 l -2.96618,6.640059 -4.18917,-0.01249 -4.18917,-0.01248 -3.19126,-6.902007 -3.19126,-6.902009 -3.61619,0.274444 c -3.52421,0.267464 -3.69167,0.443345 -6.58349,6.914505 l -2.9673,6.64005 -4.887369,0.01901 c -3.715154,0.01445 -4.887379,0.34945 -4.887379,1.396742 0,1.071574 1.241237,1.377737 5.58557,1.377737 4.344332,0 5.58557,-0.306163 5.58557,-1.377737 z m -7.680154,-0.188964 c 1.152018,-0.218926 3.037151,-0.218926 4.189178,0 1.152018,0.218925 0.209451,0.398046 -2.094594,0.398046 -2.304045,0 -3.246611,-0.179121 -2.094584,-0.398046 z m 27.927852,0 c 1.15201,-0.218926 3.03715,-0.218926 4.18917,0 1.15202,0.218925 0.20945,0.398046 -2.09459,0.398046 -2.30404,0 -3.24661,-0.179121 -2.09458,-0.398046 z m 22.57501,-6.699724 c 0,-7.654097 -0.13792,-8.266425 -1.86186,-8.266425 -1.72394,0 -1.86186,0.612328 -1.86186,8.266425 0,7.654098 0.13792,8.266425 1.86186,8.266425 1.72394,0 1.86186,-0.612327 1.86186,-8.266425 z m 13.03299,6.888688 c 0,-0.757756 0.6049,-1.377738 1.34418,-1.377738 0.74377,0 2.46389,-2.461651 3.85086,-5.51095 1.37866,-3.031023 2.79134,-5.510951 3.13928,-5.510951 0.34795,0 1.83397,2.479928 3.30229,5.510951 1.46831,3.031023 3.22101,5.51095 3.89488,5.51095 0.67388,0 1.22522,0.619982 1.22522,1.377738 0,1.071574 1.24124,1.377737 5.58557,1.377737 4.34433,0 5.58558,-0.306163 5.58558,-1.377737 0,-0.757756 0.58888,-1.377738 1.30863,-1.377738 1.17458,0 7.06971,-10.861752 7.06971,-13.025888 0,-0.483588 -0.86454,-0.747175 -1.9212,-0.585746 -1.38238,0.211188 -2.7531,2.155786 -4.88737,6.933564 l -2.96617,6.640059 -4.18918,-0.01249 -4.18917,-0.01248 -3.19126,-6.902007 -3.19125,-6.902009 -3.61619,0.274444 c -3.52421,0.267464 -3.69168,0.443345 -6.5835,6.914505 l -2.9673,6.640059 -4.88738,0.01901 c -3.71515,0.01444 -4.88737,0.349444 -4.88737,1.396736 0,1.071574 1.24124,1.377737 5.58558,1.377737 4.34432,0 5.58556,-0.306163 5.58556,-1.377737 z m -7.68016,-0.188964 c 1.15202,-0.218926 3.03716,-0.218926 4.18918,0 1.15202,0.218925 0.20946,0.398046 -2.09458,0.398046 -2.30405,0 -3.24662,-0.179121 -2.0946,-0.398046 z m 27.92785,0 c 1.15202,-0.218926 3.03716,-0.218926 4.18918,0 1.15202,0.218925 0.20946,0.398046 -2.09459,0.398046 -2.30404,0 -3.24661,-0.179121 -2.09459,-0.398046 z m 22.57502,-6.699724 c 0,-7.654097 -0.13791,-8.266425 -1.86186,-8.266425 -1.72394,0 -1.86186,0.612328 -1.86186,8.266425 0,7.654098 0.13792,8.266425 1.86186,8.266425 1.72395,0 1.86186,-0.612327 1.86186,-8.266425 z m 13.033,6.888688 c 0,-0.757756 0.58888,-1.377738 1.30864,-1.377738 1.17457,0 7.06971,-10.861752 7.06971,-13.025888 0,-0.483588 -0.86455,-0.747175 -1.92121,-0.585746 -1.38238,0.211188 -2.7531,2.155786 -4.88737,6.933564 l -2.96617,6.640059 -4.88738,0.01901 c -3.71514,0.01445 -4.88737,0.349452 -4.88737,1.396744 0,1.071574 1.24124,1.377737 5.58557,1.377737 4.34434,0 5.58558,-0.306163 5.58558,-1.377737 z m -7.68017,-0.188964 c 1.15203,-0.218926 3.03716,-0.218926 4.18918,0 1.15202,0.218925 0.20946,0.398046 -2.09459,0.398046 -2.30404,0 -3.2466,-0.179121 -2.09459,-0.398046 z M 48.273488,38.898168 c 3.374986,-7.115834 3.45946,-7.704056 1.106421,-7.704056 -1.275576,0 -2.583573,1.706658 -4.654643,6.073318 -3.374995,7.115837 -3.459469,7.704057 -1.106419,7.704057 1.275565,0 2.583561,-1.706659 4.654641,-6.073319 z m 195.494952,0 c 3.37499,-7.115834 3.45947,-7.704056 1.10642,-7.704056 -1.27557,0 -2.58357,1.706658 -4.65464,6.073318 -3.37499,7.115837 -3.45947,7.704057 -1.10642,7.704057 1.27557,0 2.58356,-1.706659 4.65464,-6.073319 z M 39.051946,22.009194 c 0,-7.654097 -0.137917,-8.266425 -1.861858,-8.266425 -1.72394,0 -1.861856,0.612328 -1.861856,8.266425 0,7.654098 0.137916,8.266427 1.861856,8.266427 1.723941,0 1.861858,-0.612329 1.861858,-8.266427 z m 46.546419,0 c 0,-7.654097 -0.137916,-8.266425 -1.861856,-8.266425 -1.723941,0 -1.861857,0.612328 -1.861857,8.266425 0,7.654098 0.137916,8.266427 1.861857,8.266427 1.72394,0 1.861856,-0.612329 1.861856,-8.266427 z m 55.855705,0 c 0,-7.654097 -0.13792,-8.266425 -1.86186,-8.266425 -1.72394,0 -1.86186,0.612328 -1.86186,8.266425 0,7.654098 0.13792,8.266427 1.86186,8.266427 1.72394,0 1.86186,-0.612329 1.86186,-8.266427 z m 55.8557,0 c 0,-7.654097 -0.13791,-8.266425 -1.86186,-8.266425 -1.72394,0 -1.86186,0.612328 -1.86186,8.266425 0,7.654098 0.13792,8.266427 1.86186,8.266427 1.72395,0 1.86186,-0.612329 1.86186,-8.266427 z M 11.03635,21.446825 c 3.374988,-7.115834 3.459468,-7.704056 1.106421,-7.704056 -1.275569,0 -2.5835675,1.70666 -4.6546424,6.07332 -3.3749892,7.115834 -3.4594668,7.704056 -1.1064206,7.704056 1.2755695,0 2.5835671,-1.70666 4.654642,-6.07332 z m 46.546422,0 c 3.374986,-7.115834 3.459459,-7.704056 1.10642,-7.704056 -1.275576,0 -2.583572,1.70666 -4.654642,6.07332 -3.374995,7.115834 -3.459469,7.704056 -1.106419,7.704056 1.275565,0 2.583562,-1.70666 4.654641,-6.07332 z m 55.855688,0 c 3.375,-7.115834 3.45947,-7.704056 1.10643,-7.704056 -1.27557,0 -2.58357,1.70666 -4.65464,6.07332 -3.37499,7.115834 -3.45947,7.704056 -1.10642,7.704056 1.27557,0 2.58356,-1.70666 4.65463,-6.07332 z m 55.85571,0 c 3.37499,-7.115834 3.45947,-7.704056 1.10642,-7.704056 -1.27557,0 -2.58356,1.70666 -4.65464,6.07332 -3.37499,7.115834 -3.45947,7.704056 -1.10643,7.704056 1.27558,0 2.58358,-1.70666 4.65465,-6.07332 z m 77.3548,5.172219 c 0,-0.495606 -1.34666,-3.595517 -2.9926,-6.888688 -2.01558,-4.032801 -3.5352,-5.987587 -4.65464,-5.987587 -2.2725,0 -2.12178,0.882377 1.33055,7.789789 2.01559,4.032801 3.53521,5.987587 4.65464,5.987587 0.91412,0 1.66205,-0.405496 1.66205,-0.901101 z M 33.466375,11.44654 c 0,-1.141157 -1.758416,-1.377739 -10.24021,-1.377739 -8.481792,0 -10.240213,0.236582 -10.240213,1.377739 0,1.141155 1.758421,1.377737 10.240213,1.377737 8.481794,0 10.24021,-0.236582 10.24021,-1.377737 z M 18.804256,11.230658 c 2.43205,-0.189209 6.411768,-0.189209 8.843822,0 2.432051,0.189208 0.442188,0.344014 -4.421913,0.344014 -4.864101,0 -6.853961,-0.154806 -4.421909,-0.344014 z m 61.208539,0.215882 c 0,-1.071574 -1.241239,-1.377739 -5.585572,-1.377739 -4.344332,0 -5.58557,0.306165 -5.58557,1.377739 0,1.071573 1.241238,1.377737 5.58557,1.377737 4.344333,0 5.585572,-0.306164 5.585572,-1.377737 z M 72.33264,11.257575 c 1.152018,-0.218925 3.03715,-0.218925 4.189178,0 1.152017,0.218926 0.209451,0.398046 -2.094595,0.398046 -2.304045,0 -3.246611,-0.17912 -2.094583,-0.398046 z m 63.53585,0.188965 c 0,-1.141157 -1.75841,-1.377739 -10.24021,-1.377739 -8.48179,0 -10.24021,0.236582 -10.24021,1.377739 0,1.141155 1.75842,1.377737 10.24021,1.377737 8.4818,0 10.24021,-0.236582 10.24021,-1.377737 z m -14.66212,-0.215882 c 2.43205,-0.189209 6.41178,-0.189209 8.84382,0 2.43205,0.189208 0.44219,0.344014 -4.42191,0.344014 -4.86411,0 -6.85395,-0.154806 -4.42191,-0.344014 z m 70.51782,0.215882 c 0,-1.141157 -1.75841,-1.377739 -10.2402,-1.377739 -8.4818,0 -10.24022,0.236582 -10.24022,1.377739 0,1.141155 1.75842,1.377737 10.24022,1.377737 8.48179,0 10.2402,-0.236582 10.2402,-1.377737 z m -14.66212,-0.215882 c 2.43205,-0.189209 6.41178,-0.189209 8.84382,0 2.43205,0.189208 0.4422,0.344014 -4.4219,0.344014 -4.86411,0 -6.85397,-0.154806 -4.42192,-0.344014 z M 38.486884,9.5344346 c 1.140271,-2.9317905 0.607432,-4.9765833 -1.296796,-4.9765833 -1.02402,0 -1.867576,0.5166518 -1.874567,1.1481147 -0.0069,0.6314629 -0.265307,2.0780879 -0.574037,3.2147211 -0.445813,1.6413089 -0.176326,2.0666059 1.309506,2.0666059 1.028956,0 2.125109,-0.653785 2.435894,-1.4528584 z m 27.927852,0 c 1.14027,-2.9317905 0.607432,-4.9765833 -1.296796,-4.9765833 -1.024022,0 -1.867577,0.5166518 -1.874567,1.1481147 -0.0069,0.6314629 -0.265308,2.0780879 -0.574038,3.2147211 -0.445813,1.6413089 -0.176325,2.0666059 1.309506,2.0666059 1.028957,0 2.125108,-0.653785 2.435895,-1.4528584 z m 74.474264,0 c 1.14026,-2.9317905 0.60744,-4.9765833 -1.29679,-4.9765833 -1.02402,0 -1.86757,0.5166518 -1.87456,1.1481147 -0.007,0.6314629 -0.26531,2.0780879 -0.57406,3.2147211 -0.4458,1.6413089 -0.17631,2.0666059 1.30952,2.0666059 1.02895,0 2.1251,-0.653785 2.43589,-1.4528584 z m 55.85571,0 c 1.14026,-2.9317905 0.60742,-4.9765833 -1.2968,-4.9765833 -1.02402,0 -1.86758,0.5166518 -1.87457,1.1481147 -0.007,0.6314629 -0.2653,2.0780879 -0.57405,3.2147211 -0.4458,1.6413089 -0.17631,2.0666059 1.30952,2.0666059 1.02895,0 2.12511,-0.653785 2.4359,-1.4528584 z"
       style="fill:#000000;stroke:none;stroke-width:1.60000002;stroke-linejoin:round;stroke-miterlimit:4;stroke-dasharray:none;stroke-opacity:0" />
    <path
       id="path4289"
       d="M 0,-0.14018755 0,87.1875 l 252.43712,0.176777 0,-87.32768785 z"
       style="fill:none;fill-rule:evenodd;stroke:#ff00ff;stroke-width:1.80708659;stroke-linecap:butt;stroke-linejoin:miter;stroke-miterlimit:4;stroke-dasharray:none;stroke-opacity:1" />
  </g>
</svg>
